<svg width="170" height="32" viewBox="0 0 170 32" fill="none" xmlns="http://www.w3.org/2000/svg">
<rect width="170" height="32" rx="4" fill="url(#paint0_linear)"/>
<path d="M42.1968 20.144C40.9808 20.144 39.9648 19.728 39.1488 18.896C38.3328 18.056 37.9248 17.024 37.9248 15.8C37.9248 14.584 38.3328 13.556 39.1488 12.716C39.9648 11.876 41.0008 11.456 42.2568 11.456C42.9848 11.456 43.6008 11.568 44.1048 11.792C44.6168 12.016 45.0968 12.34 45.5448 12.764L44.5968 13.856C43.8448 13.16 43.0608 12.812 42.2448 12.812C41.4448 12.812 40.7808 13.1 40.2528 13.676C39.7328 14.252 39.4728 14.96 39.4728 15.8C39.4728 16.632 39.7368 17.34 40.2648 17.924C40.7928 18.5 41.4528 18.788 42.2448 18.788C42.7248 18.788 43.1488 18.7 43.5168 18.524C43.8848 18.34 44.2648 18.064 44.6568 17.696L45.6048 18.656C45.1328 19.152 44.6328 19.524 44.1048 19.772C43.5768 20.02 42.9408 20.144 42.1968 20.144ZM54.0858 18.872C53.2538 19.72 52.2018 20.144 50.9298 20.144C49.6578 20.144 48.6098 19.724 47.7858 18.884C46.9618 18.044 46.5498 17.016 46.5498 15.8C46.5498 14.6 46.9658 13.576 47.7978 12.728C48.6298 11.88 49.6818 11.456 50.9538 11.456C52.2258 11.456 53.2738 11.876 54.0978 12.716C54.9218 13.556 55.3338 14.584 55.3338 15.8C55.3338 17 54.9178 18.024 54.0858 18.872ZM48.9018 17.924C49.4458 18.5 50.1298 18.788 50.9538 18.788C51.7778 18.788 52.4538 18.5 52.9818 17.924C53.5178 17.348 53.7858 16.64 53.7858 15.8C53.7858 14.968 53.5138 14.264 52.9698 13.688C52.4338 13.104 51.7538 12.812 50.9298 12.812C50.1058 12.812 49.4258 13.1 48.8898 13.676C48.3618 14.252 48.0978 14.96 48.0978 15.8C48.0978 16.632 48.3658 17.34 48.9018 17.924ZM57.1171 20V11.6H58.4851L62.9851 17.408V11.6H64.4371V20H63.2011L58.5691 14.024V20H57.1171ZM68.6616 20V12.968H65.9976V11.6H72.8136V12.968H70.1496V20H68.6616ZM72.5807 20L76.2767 11.54H77.6447L81.3407 20H79.7807L78.9287 17.972H74.9567L74.0927 20H72.5807ZM75.4967 16.664H78.3887L76.9367 13.304L75.4967 16.664ZM86.1655 20.144C84.9495 20.144 83.9335 19.728 83.1175 18.896C82.3015 18.056 81.8935 17.024 81.8935 15.8C81.8935 14.584 82.3015 13.556 83.1175 12.716C83.9335 11.876 84.9695 11.456 86.2255 11.456C86.9535 11.456 87.5695 11.568 88.0735 11.792C88.5855 12.016 89.0655 12.34 89.5135 12.764L88.5655 13.856C87.8135 13.16 87.0295 12.812 86.2135 12.812C85.4135 12.812 84.7495 13.1 84.2215 13.676C83.7015 14.252 83.4415 14.96 83.4415 15.8C83.4415 16.632 83.7055 17.34 84.2335 17.924C84.7615 18.5 85.4215 18.788 86.2135 18.788C86.6935 18.788 87.1175 18.7 87.4855 18.524C87.8535 18.34 88.2335 18.064 88.6255 17.696L89.5735 18.656C89.1015 19.152 88.6015 19.524 88.0735 19.772C87.5455 20.02 86.9095 20.144 86.1655 20.144ZM93.1889 20V12.968H90.5249V11.6H97.3409V12.968H94.6769V20H93.1889ZM102.588 20V11.6H104.064V20H102.588ZM106.312 20V11.6H107.68L112.18 17.408V11.6H113.632V20H112.396L107.764 14.024V20H106.312ZM115.793 20V11.6H122.045V12.944H117.269V15.236H121.505V16.58H117.269V20H115.793ZM130.832 18.872C130 19.72 128.948 20.144 127.676 20.144C126.404 20.144 125.356 19.724 124.532 18.884C123.708 18.044 123.296 17.016 123.296 15.8C123.296 14.6 123.712 13.576 124.544 12.728C125.376 11.88 126.428 11.456 127.7 11.456C128.972 11.456 130.02 11.876 130.844 12.716C131.668 13.556 132.08 14.584 132.08 15.8C132.08 17 131.664 18.024 130.832 18.872ZM125.648 17.924C126.192 18.5 126.876 18.788 127.7 18.788C128.524 18.788 129.2 18.5 129.728 17.924C130.264 17.348 130.532 16.64 130.532 15.8C130.532 14.968 130.26 14.264 129.716 13.688C129.18 13.104 128.5 12.812 127.676 12.812C126.852 12.812 126.172 13.1 125.636 13.676C125.108 14.252 124.844 14.96 124.844 15.8C124.844 16.632 125.112 17.34 125.648 17.924Z" fill="white"/>
<defs>
<linearGradient id="paint0_linear" x1="85" y1="0" x2="85" y2="32" gradientUnits="userSpaceOnUse">
<stop stop-color="#0077B5"/>
<stop offset="1" stop-color="#0E6795"/>
</linearGradient>
</defs>
</svg>
